<?xml version="1.0" encoding="UTF-8" standalone="no"?>
<!DOCTYPE svg PUBLIC "-//W3C//DTD SVG 1.1//EN"
 "http://www.w3.org/Graphics/SVG/1.1/DTD/svg11.dtd">
<!-- Generated by graphviz version 2.38.0 (20140413.2041)
 -->
<!-- Title: controllers_diagram Pages: 1 -->
<svg width="591pt" height="515pt"
 viewBox="0.00 0.00 591.35 515.00" xmlns="http://www.w3.org/2000/svg" xmlns:xlink="http://www.w3.org/1999/xlink">
<g id="graph0" class="graph" transform="scale(1 1) rotate(0) translate(211.714 303.5)">
<title>controllers_diagram</title>
<polygon fill="none" stroke="none" points="-211.714,211.5 -211.714,-303.5 379.638,-303.5 379.638,211.5 -211.714,211.5"/>
<!-- _diagram_info -->
<g id="node1" class="node"><title>_diagram_info</title>
<text text-anchor="start" x="-151.688" y="-219.1" font-family="Times,serif" font-size="13.00">Controllers diagram</text>
<text text-anchor="start" x="-151.688" y="-206.1" font-family="Times,serif" font-size="13.00">Date: Mar 29 2016 &#45; 15:06</text>
<text text-anchor="start" x="-151.688" y="-193.1" font-family="Times,serif" font-size="13.00">Migration version: 20160323003700</text>
<text text-anchor="start" x="-151.688" y="-180.1" font-family="Times,serif" font-size="13.00">Generated by RailRoady 1.4.2</text>
<text text-anchor="start" x="-151.688" y="-167.1" font-family="Times,serif" font-size="13.00">http://railroady.prestonlee.com</text>
</g>
<!-- ApplicationController -->
<g id="node2" class="node"><title>ApplicationController</title>
<path fill="none" stroke="black" d="M92.1792,207C92.1792,207 207.821,207 207.821,207 213.821,207 219.821,201 219.821,195 219.821,195 219.821,127 219.821,127 219.821,121 213.821,115 207.821,115 207.821,115 92.1792,115 92.1792,115 86.1792,115 80.1792,121 80.1792,127 80.1792,127 80.1792,195 80.1792,195 80.1792,201 86.1792,207 92.1792,207"/>
<text text-anchor="middle" x="150" y="130.2" font-family="Times,serif" font-size="14.00">ApplicationController</text>
<polyline fill="none" stroke="black" points="80.1792,137 219.821,137 "/>
<polyline fill="none" stroke="black" points="80.1792,161 219.821,161 "/>
<polyline fill="none" stroke="black" points="80.1792,185 219.821,185 "/>
<text text-anchor="start" x="88.1792" y="200.2" font-family="Times,serif" font-size="14.00">_layout</text>
</g>
<!-- CoursesController -->
<g id="node3" class="node"><title>CoursesController</title>
<path fill="none" stroke="black" d="M91.6724,-49C91.6724,-49 186.328,-49 186.328,-49 192.328,-49 198.328,-55 198.328,-61 198.328,-61 198.328,-239 198.328,-239 198.328,-245 192.328,-251 186.328,-251 186.328,-251 91.6724,-251 91.6724,-251 85.6724,-251 79.6724,-245 79.6724,-239 79.6724,-239 79.6724,-61 79.6724,-61 79.6724,-55 85.6724,-49 91.6724,-49"/>
<text text-anchor="middle" x="139" y="-235.8" font-family="Times,serif" font-size="14.00">CoursesController</text>
<polyline fill="none" stroke="black" points="79.6724,-229 198.328,-229 "/>
<text text-anchor="start" x="87.6724" y="-213.8" font-family="Times,serif" font-size="14.00">create</text>
<text text-anchor="start" x="87.6724" y="-199.8" font-family="Times,serif" font-size="14.00">destroy</text>
<text text-anchor="start" x="87.6724" y="-185.8" font-family="Times,serif" font-size="14.00">edit</text>
<text text-anchor="start" x="87.6724" y="-171.8" font-family="Times,serif" font-size="14.00">index</text>
<text text-anchor="start" x="87.6724" y="-157.8" font-family="Times,serif" font-size="14.00">new</text>
<text text-anchor="start" x="87.6724" y="-143.8" font-family="Times,serif" font-size="14.00">show</text>
<text text-anchor="start" x="87.6724" y="-129.8" font-family="Times,serif" font-size="14.00">update</text>
<polyline fill="none" stroke="black" points="79.6724,-123 198.328,-123 "/>
<polyline fill="none" stroke="black" points="79.6724,-99 198.328,-99 "/>
<text text-anchor="start" x="87.6724" y="-83.8" font-family="Times,serif" font-size="14.00">_layout</text>
<text text-anchor="start" x="87.6724" y="-69.8" font-family="Times,serif" font-size="14.00">course_params</text>
<text text-anchor="start" x="87.6724" y="-55.8" font-family="Times,serif" font-size="14.00">find_course</text>
</g>
<!-- EventsController -->
<g id="node4" class="node"><title>EventsController</title>
<path fill="none" stroke="black" d="M-51.8242,111C-51.8242,111 35.8242,111 35.8242,111 41.8242,111 47.8242,105 47.8242,99 47.8242,99 47.8242,-93 47.8242,-93 47.8242,-99 41.8242,-105 35.8242,-105 35.8242,-105 -51.8242,-105 -51.8242,-105 -57.8242,-105 -63.8242,-99 -63.8242,-93 -63.8242,-93 -63.8242,99 -63.8242,99 -63.8242,105 -57.8242,111 -51.8242,111"/>
<text text-anchor="middle" x="-8" y="-89.8" font-family="Times,serif" font-size="14.00">EventsController</text>
<polyline fill="none" stroke="black" points="-63.8242,-83 47.8242,-83 "/>
<text text-anchor="start" x="-55.8242" y="-67.8" font-family="Times,serif" font-size="14.00">create</text>
<text text-anchor="start" x="-55.8242" y="-53.8" font-family="Times,serif" font-size="14.00">destroy</text>
<text text-anchor="start" x="-55.8242" y="-39.8" font-family="Times,serif" font-size="14.00">edit</text>
<text text-anchor="start" x="-55.8242" y="-25.8" font-family="Times,serif" font-size="14.00">index</text>
<text text-anchor="start" x="-55.8242" y="-11.8" font-family="Times,serif" font-size="14.00">new</text>
<text text-anchor="start" x="-55.8242" y="2.2" font-family="Times,serif" font-size="14.00">show</text>
<text text-anchor="start" x="-55.8242" y="16.2" font-family="Times,serif" font-size="14.00">update</text>
<polyline fill="none" stroke="black" points="-63.8242,23 47.8242,23 "/>
<polyline fill="none" stroke="black" points="-63.8242,47 47.8242,47 "/>
<text text-anchor="start" x="-55.8242" y="62.2" font-family="Times,serif" font-size="14.00">_layout</text>
<text text-anchor="start" x="-55.8242" y="76.2" font-family="Times,serif" font-size="14.00">event_params</text>
<text text-anchor="start" x="-55.8242" y="90.2" font-family="Times,serif" font-size="14.00">find_course</text>
<text text-anchor="start" x="-55.8242" y="104.2" font-family="Times,serif" font-size="14.00">find_event</text>
</g>
<!-- Registrations::RegistrationsController -->
<g id="node5" class="node"><title>Registrations::RegistrationsController</title>
<path fill="none" stroke="black" d="M92.4551,79C92.4551,79 297.545,79 297.545,79 303.545,79 309.545,73 309.545,67 309.545,67 309.545,-1 309.545,-1 309.545,-7 303.545,-13 297.545,-13 297.545,-13 92.4551,-13 92.4551,-13 86.4551,-13 80.4551,-7 80.4551,-1 80.4551,-1 80.4551,67 80.4551,67 80.4551,73 86.4551,79 92.4551,79"/>
<text text-anchor="middle" x="195" y="2.2" font-family="Times,serif" font-size="14.00">Registrations::RegistrationsController</text>
<polyline fill="none" stroke="black" points="80.4551,9 309.545,9 "/>
<polyline fill="none" stroke="black" points="80.4551,33 309.545,33 "/>
<polyline fill="none" stroke="black" points="80.4551,57 309.545,57 "/>
<text text-anchor="start" x="88.4551" y="72.2" font-family="Times,serif" font-size="14.00">_layout</text>
</g>
<!-- RegistrationsController -->
<g id="node6" class="node"><title>RegistrationsController</title>
<path fill="none" stroke="black" d="M236.362,-49C236.362,-49 363.638,-49 363.638,-49 369.638,-49 375.638,-55 375.638,-61 375.638,-61 375.638,-157 375.638,-157 375.638,-163 369.638,-169 363.638,-169 363.638,-169 236.362,-169 236.362,-169 230.362,-169 224.362,-163 224.362,-157 224.362,-157 224.362,-61 224.362,-61 224.362,-55 230.362,-49 236.362,-49"/>
<text text-anchor="middle" x="300" y="-153.8" font-family="Times,serif" font-size="14.00">RegistrationsController</text>
<polyline fill="none" stroke="black" points="224.362,-147 375.638,-147 "/>
<polyline fill="none" stroke="black" points="224.362,-123 375.638,-123 "/>
<polyline fill="none" stroke="black" points="224.362,-99 375.638,-99 "/>
<text text-anchor="start" x="232.362" y="-83.8" font-family="Times,serif" font-size="14.00">_layout</text>
<text text-anchor="start" x="232.362" y="-69.8" font-family="Times,serif" font-size="14.00">account_update_params</text>
<text text-anchor="start" x="232.362" y="-55.8" font-family="Times,serif" font-size="14.00">sign_up_params</text>
</g>
<!-- UsersController -->
<g id="node7" class="node"><title>UsersController</title>
<path fill="none" stroke="black" d="M-195.714,-33C-195.714,-33 -114.286,-33 -114.286,-33 -108.286,-33 -102.286,-39 -102.286,-45 -102.286,-45 -102.286,-111 -102.286,-111 -102.286,-117 -108.286,-123 -114.286,-123 -114.286,-123 -195.714,-123 -195.714,-123 -201.714,-123 -207.714,-117 -207.714,-111 -207.714,-111 -207.714,-45 -207.714,-45 -207.714,-39 -201.714,-33 -195.714,-33"/>
<text text-anchor="middle" x="-155" y="-107.8" font-family="Times,serif" font-size="14.00">UsersController</text>
<polyline fill="none" stroke="black" points="-207.714,-101 -102.286,-101 "/>
<text text-anchor="start" x="-199.714" y="-85.8" font-family="Times,serif" font-size="14.00">index</text>
<polyline fill="none" stroke="black" points="-207.714,-79 -102.286,-79 "/>
<polyline fill="none" stroke="black" points="-207.714,-55 -102.286,-55 "/>
<text text-anchor="start" x="-199.714" y="-39.8" font-family="Times,serif" font-size="14.00">_layout</text>
</g>
<!-- WelcomeController -->
<g id="node8" class="node"><title>WelcomeController</title>
<path fill="none" stroke="black" d="M235.967,-209C235.967,-209 338.033,-209 338.033,-209 344.033,-209 350.033,-215 350.033,-221 350.033,-221 350.033,-287 350.033,-287 350.033,-293 344.033,-299 338.033,-299 338.033,-299 235.967,-299 235.967,-299 229.967,-299 223.967,-293 223.967,-287 223.967,-287 223.967,-221 223.967,-221 223.967,-215 229.967,-209 235.967,-209"/>
<text text-anchor="middle" x="287" y="-283.8" font-family="Times,serif" font-size="14.00">WelcomeController</text>
<polyline fill="none" stroke="black" points="223.967,-277 350.033,-277 "/>
<text text-anchor="start" x="231.967" y="-261.8" font-family="Times,serif" font-size="14.00">index</text>
<polyline fill="none" stroke="black" points="223.967,-255 350.033,-255 "/>
<polyline fill="none" stroke="black" points="223.967,-231 350.033,-231 "/>
<text text-anchor="start" x="231.967" y="-215.8" font-family="Times,serif" font-size="14.00">_layout</text>
</g>
</g>
</svg>
