<?xml version="1.0" encoding="UTF-8" standalone="no"?>
<!DOCTYPE svg PUBLIC "-//W3C//DTD SVG 1.1//EN"
 "http://www.w3.org/Graphics/SVG/1.1/DTD/svg11.dtd">
<!-- Generated by graphviz version 2.38.0 (20140413.2041)
 -->
<!-- Title: models_diagram Pages: 1 -->
<svg width="470pt" height="593pt"
 viewBox="0.00 0.00 469.97 593.00" xmlns="http://www.w3.org/2000/svg" xmlns:xlink="http://www.w3.org/1999/xlink">
<g id="graph0" class="graph" transform="scale(1 1) rotate(0) translate(4 589)">
<title>models_diagram</title>
<polygon fill="none" stroke="none" points="-4,4 -4,-589 465.966,-589 465.966,4 -4,4"/>
<!-- _diagram_info -->
<g id="node1" class="node"><title>_diagram_info</title>
<text text-anchor="start" x="8" y="-556.6" font-family="Times,serif" font-size="13.00">Models diagram</text>
<text text-anchor="start" x="8" y="-543.6" font-family="Times,serif" font-size="13.00">Date: Mar 29 2016 &#45; 15:06</text>
<text text-anchor="start" x="8" y="-530.6" font-family="Times,serif" font-size="13.00">Migration version: 20160323003700</text>
<text text-anchor="start" x="8" y="-517.6" font-family="Times,serif" font-size="13.00">Generated by RailRoady 1.4.2</text>
<text text-anchor="start" x="8" y="-504.6" font-family="Times,serif" font-size="13.00">http://railroady.prestonlee.com</text>
</g>
<!-- Course -->
<g id="node2" class="node"><title>Course</title>
<path fill="none" stroke="black" d="M237.082,-484.5C237.082,-484.5 352.293,-484.5 352.293,-484.5 358.293,-484.5 364.293,-490.5 364.293,-496.5 364.293,-496.5 364.293,-572.5 364.293,-572.5 364.293,-578.5 358.293,-584.5 352.293,-584.5 352.293,-584.5 237.082,-584.5 237.082,-584.5 231.082,-584.5 225.082,-578.5 225.082,-572.5 225.082,-572.5 225.082,-496.5 225.082,-496.5 225.082,-490.5 231.082,-484.5 237.082,-484.5"/>
<text text-anchor="middle" x="294.688" y="-569.3" font-family="Times,serif" font-size="14.00">Course</text>
<polyline fill="none" stroke="black" points="225.082,-562.5 364.293,-562.5 "/>
<text text-anchor="start" x="233.082" y="-547.3" font-family="Times,serif" font-size="14.00">id :INTEGER</text>
<text text-anchor="start" x="233.082" y="-533.3" font-family="Times,serif" font-size="14.00">course_name :varchar</text>
<text text-anchor="start" x="233.082" y="-519.3" font-family="Times,serif" font-size="14.00">user_id :integer</text>
<text text-anchor="start" x="233.082" y="-505.3" font-family="Times,serif" font-size="14.00">created_at :datetime</text>
<text text-anchor="start" x="233.082" y="-491.3" font-family="Times,serif" font-size="14.00">updated_at :datetime</text>
</g>
<!-- Event -->
<g id="node3" class="node"><title>Event</title>
<path fill="none" stroke="black" d="M240.182,-0.5C240.182,-0.5 349.193,-0.5 349.193,-0.5 355.193,-0.5 361.193,-6.5 361.193,-12.5 361.193,-12.5 361.193,-144.5 361.193,-144.5 361.193,-150.5 355.193,-156.5 349.193,-156.5 349.193,-156.5 240.182,-156.5 240.182,-156.5 234.182,-156.5 228.182,-150.5 228.182,-144.5 228.182,-144.5 228.182,-12.5 228.182,-12.5 228.182,-6.5 234.182,-0.5 240.182,-0.5"/>
<text text-anchor="middle" x="294.688" y="-141.3" font-family="Times,serif" font-size="14.00">Event</text>
<polyline fill="none" stroke="black" points="228.182,-134.5 361.193,-134.5 "/>
<text text-anchor="start" x="236.182" y="-119.3" font-family="Times,serif" font-size="14.00">id :INTEGER</text>
<text text-anchor="start" x="236.182" y="-105.3" font-family="Times,serif" font-size="14.00">title :varchar</text>
<text text-anchor="start" x="236.182" y="-91.3" font-family="Times,serif" font-size="14.00">event_date :date</text>
<text text-anchor="start" x="236.182" y="-77.3" font-family="Times,serif" font-size="14.00">start_time :datetime</text>
<text text-anchor="start" x="236.182" y="-63.3" font-family="Times,serif" font-size="14.00">end_time :datetime</text>
<text text-anchor="start" x="236.182" y="-49.3" font-family="Times,serif" font-size="14.00">created_at :datetime</text>
<text text-anchor="start" x="236.182" y="-35.3" font-family="Times,serif" font-size="14.00">updated_at :datetime</text>
<text text-anchor="start" x="236.182" y="-21.3" font-family="Times,serif" font-size="14.00">course_id :integer</text>
<text text-anchor="start" x="236.182" y="-7.3" font-family="Times,serif" font-size="14.00">user_id :integer</text>
</g>
<!-- Course&#45;&gt;Event -->
<g id="edge2" class="edge"><title>Course&#45;&gt;Event</title>
<path fill="none" stroke="#08b724" d="M259.247,-476.748C254.893,-467.443 251.125,-457.673 248.688,-448 221.001,-338.101 227.002,-304.239 248.688,-193 250.406,-184.188 252.808,-175.195 255.623,-166.32"/>
<ellipse fill="none" stroke="#08b724" cx="261.09" cy="-480.508" rx="4.00002" ry="4.00002"/>
<polygon fill="#08b724" stroke="#08b724" points="255.652,-166.233 263.094,-158.179 257.239,-161.492 258.827,-156.751 258.827,-156.751 258.827,-156.751 257.239,-161.492 254.559,-155.322 255.652,-166.233 255.652,-166.233"/>
</g>
<!-- User -->
<g id="node4" class="node"><title>User</title>
<path fill="none" stroke="black" d="M269.41,-193.5C269.41,-193.5 449.966,-193.5 449.966,-193.5 455.966,-193.5 461.966,-199.5 461.966,-205.5 461.966,-205.5 461.966,-435.5 461.966,-435.5 461.966,-441.5 455.966,-447.5 449.966,-447.5 449.966,-447.5 269.41,-447.5 269.41,-447.5 263.41,-447.5 257.41,-441.5 257.41,-435.5 257.41,-435.5 257.41,-205.5 257.41,-205.5 257.41,-199.5 263.41,-193.5 269.41,-193.5"/>
<text text-anchor="middle" x="359.688" y="-432.3" font-family="Times,serif" font-size="14.00">User</text>
<polyline fill="none" stroke="black" points="257.41,-425.5 461.966,-425.5 "/>
<text text-anchor="start" x="265.41" y="-410.3" font-family="Times,serif" font-size="14.00">id :INTEGER</text>
<text text-anchor="start" x="265.41" y="-396.3" font-family="Times,serif" font-size="14.00">email :varchar</text>
<text text-anchor="start" x="265.41" y="-382.3" font-family="Times,serif" font-size="14.00">encrypted_password :varchar</text>
<text text-anchor="start" x="265.41" y="-368.3" font-family="Times,serif" font-size="14.00">reset_password_token :varchar</text>
<text text-anchor="start" x="265.41" y="-354.3" font-family="Times,serif" font-size="14.00">reset_password_sent_at :datetime</text>
<text text-anchor="start" x="265.41" y="-340.3" font-family="Times,serif" font-size="14.00">remember_created_at :datetime</text>
<text text-anchor="start" x="265.41" y="-326.3" font-family="Times,serif" font-size="14.00">sign_in_count :integer</text>
<text text-anchor="start" x="265.41" y="-312.3" font-family="Times,serif" font-size="14.00">current_sign_in_at :datetime</text>
<text text-anchor="start" x="265.41" y="-298.3" font-family="Times,serif" font-size="14.00">last_sign_in_at :datetime</text>
<text text-anchor="start" x="265.41" y="-284.3" font-family="Times,serif" font-size="14.00">current_sign_in_ip :varchar</text>
<text text-anchor="start" x="265.41" y="-270.3" font-family="Times,serif" font-size="14.00">last_sign_in_ip :varchar</text>
<text text-anchor="start" x="265.41" y="-256.3" font-family="Times,serif" font-size="14.00">created_at :datetime</text>
<text text-anchor="start" x="265.41" y="-242.3" font-family="Times,serif" font-size="14.00">updated_at :datetime</text>
<text text-anchor="start" x="265.41" y="-228.3" font-family="Times,serif" font-size="14.00">first_name :varchar</text>
<text text-anchor="start" x="265.41" y="-214.3" font-family="Times,serif" font-size="14.00">last_name :varchar</text>
<text text-anchor="start" x="265.41" y="-200.3" font-family="Times,serif" font-size="14.00">role :varchar</text>
</g>
<!-- Course&#45;&gt;User -->
<g id="edge1" class="edge"><title>Course&#45;&gt;User</title>
<path fill="none" stroke="#1f1d1c" d="M312.757,-474.565C314.434,-469.098 316.174,-463.422 317.955,-457.614"/>
<polygon fill="#1f1d1c" stroke="#1f1d1c" points="312.695,-474.769 305.461,-483.011 311.229,-479.55 309.763,-484.33 309.763,-484.33 309.763,-484.33 311.229,-479.55 314.066,-485.649 312.695,-474.769 312.695,-474.769"/>
<polygon fill="#1f1d1c" stroke="#1f1d1c" points="318.054,-457.291 325.288,-449.049 319.519,-452.51 320.985,-447.73 320.985,-447.73 320.985,-447.73 319.519,-452.51 316.683,-446.411 318.054,-457.291 318.054,-457.291"/>
</g>
<!-- User&#45;&gt;Event -->
<g id="edge3" class="edge"><title>User&#45;&gt;Event</title>
<path fill="none" stroke="#7e6611" d="M323.35,-185.331C321.617,-178.93 319.898,-172.585 318.214,-166.368"/>
<ellipse fill="none" stroke="#7e6611" cx="324.429" cy="-189.314" rx="4.00001" ry="4.00001"/>
<polygon fill="#7e6611" stroke="#7e6611" points="318.214,-166.367 319.944,-155.538 316.907,-161.541 315.6,-156.715 315.6,-156.715 315.6,-156.715 316.907,-161.541 311.257,-157.891 318.214,-166.367 318.214,-166.367"/>
</g>
</g>
</svg>
