<?xml version="1.0" encoding="UTF-8" standalone="no"?>
<!DOCTYPE svg PUBLIC "-//W3C//DTD SVG 1.1//EN"
 "http://www.w3.org/Graphics/SVG/1.1/DTD/svg11.dtd">
<!-- Generated by graphviz version 2.38.0 (20140413.2041)
 -->
<!-- Title: models_diagram Pages: 1 -->
<svg width="323pt" height="225pt"
 viewBox="0.00 0.00 322.69 225.00" xmlns="http://www.w3.org/2000/svg" xmlns:xlink="http://www.w3.org/1999/xlink">
<g id="graph0" class="graph" transform="scale(1 1) rotate(0) translate(4 221)">
<title>models_diagram</title>
<polygon fill="none" stroke="none" points="-4,4 -4,-221 318.688,-221 318.688,4 -4,4"/>
<!-- _diagram_info -->
<g id="node1" class="node"><title>_diagram_info</title>
<text text-anchor="start" x="8" y="-202.6" font-family="Times,serif" font-size="13.00">Models diagram</text>
<text text-anchor="start" x="8" y="-189.6" font-family="Times,serif" font-size="13.00">Date: Mar 29 2016 &#45; 15:06</text>
<text text-anchor="start" x="8" y="-176.6" font-family="Times,serif" font-size="13.00">Migration version: 20160323003700</text>
<text text-anchor="start" x="8" y="-163.6" font-family="Times,serif" font-size="13.00">Generated by RailRoady 1.4.2</text>
<text text-anchor="start" x="8" y="-150.6" font-family="Times,serif" font-size="13.00">http://railroady.prestonlee.com</text>
</g>
<!-- Course -->
<g id="node2" class="node"><title>Course</title>
<ellipse fill="none" stroke="black" cx="260.688" cy="-180.5" rx="35.3216" ry="18"/>
<text text-anchor="middle" x="260.688" y="-176.3" font-family="Times,serif" font-size="14.00">Course</text>
</g>
<!-- Event -->
<g id="node3" class="node"><title>Event</title>
<ellipse fill="none" stroke="black" cx="259.688" cy="-18" rx="30.9706" ry="18"/>
<text text-anchor="middle" x="259.688" y="-13.8" font-family="Times,serif" font-size="14.00">Event</text>
</g>
<!-- Course&#45;&gt;Event -->
<g id="edge2" class="edge"><title>Course&#45;&gt;Event</title>
<path fill="none" stroke="#5c1b43" d="M256.317,-154.297C253.081,-132.518 249.572,-100.193 251.688,-72 252.324,-63.5179 253.526,-54.3361 254.809,-46.0356"/>
<ellipse fill="none" stroke="#5c1b43" cx="256.961" cy="-158.426" rx="4.00001" ry="4.00001"/>
<polygon fill="#5c1b43" stroke="#5c1b43" points="254.818,-45.9796 260.88,-36.8417 255.629,-41.0458 256.439,-36.1119 256.439,-36.1119 256.439,-36.1119 255.629,-41.0458 251.999,-35.3822 254.818,-45.9796 254.818,-45.9796"/>
</g>
<!-- User -->
<g id="node4" class="node"><title>User</title>
<ellipse fill="none" stroke="black" cx="287.688" cy="-90" rx="27" ry="18"/>
<text text-anchor="middle" x="287.688" y="-85.8" font-family="Times,serif" font-size="14.00">User</text>
</g>
<!-- Course&#45;&gt;User -->
<g id="edge1" class="edge"><title>Course&#45;&gt;User</title>
<path fill="none" stroke="#b20e96" d="M268.812,-152.871C272.239,-141.637 276.219,-128.591 279.639,-117.383"/>
<polygon fill="#b20e96" stroke="#b20e96" points="268.812,-152.872 261.589,-161.123 267.353,-157.654 265.894,-162.436 265.894,-162.436 265.894,-162.436 267.353,-157.654 270.198,-163.749 268.812,-152.872 268.812,-152.872"/>
<polygon fill="#b20e96" stroke="#b20e96" points="279.671,-117.276 286.894,-109.024 281.13,-112.494 282.589,-107.711 282.589,-107.711 282.589,-107.711 281.13,-112.494 278.285,-106.398 279.671,-117.276 279.671,-117.276"/>
</g>
<!-- User&#45;&gt;Event -->
<g id="edge3" class="edge"><title>User&#45;&gt;Event</title>
<path fill="none" stroke="#99d92b" d="M277.999,-64.7779C275.505,-58.544 272.81,-51.8046 270.273,-45.4634"/>
<ellipse fill="none" stroke="#99d92b" cx="279.567" cy="-68.6971" rx="4.00001" ry="4.00001"/>
<polygon fill="#99d92b" stroke="#99d92b" points="270.184,-45.241 270.648,-34.2849 268.327,-40.5986 266.47,-35.9562 266.47,-35.9562 266.47,-35.9562 268.327,-40.5986 262.292,-37.6275 270.184,-45.241 270.184,-45.241"/>
</g>
</g>
</svg>
